<svg width="100%" height="100%" viewBox="0 0 234 234" fill="none" xmlns="http://www.w3.org/2000/svg">
    <g id="loading">
    <g id="Logo">
    <path id="Subtract" fill-rule="evenodd" clip-rule="evenodd" d="M127.33 127.091C125.909 123.085 122.111 120.415 117.86 120.434C113.61 120.453 109.836 123.156 108.451 127.175C103.828 140.586 89.251 152.259 69.7009 155.083V165.166C87.788 162.901 103.189 154.026 112.047 141.675C114.552 138.182 116.534 134.411 117.905 130.434C119.306 134.385 121.328 138.132 123.881 141.606C134.485 156.032 154.266 165.733 176.917 165.733C202.817 165.733 224.963 153.049 233.931 135.121H222.204C213.967 146.83 197.761 155.733 176.917 155.733C151.864 155.733 132.778 142.454 127.33 127.091ZM221.913 99.2036C213.589 87.697 197.518 79 176.917 79C151.864 79 132.778 92.2791 127.33 107.642C125.909 111.648 122.111 114.318 117.86 114.299C113.61 114.281 109.836 111.577 108.451 107.558C103.132 92.1289 84.6371 79 60.5518 79C31.1407 79 11 98.0208 11 117.367C11 134.529 26.8514 151.436 50.9643 155.033V165.11C22.6331 161.386 1 141.428 1 117.367C1 90.6545 27.6622 69 60.5518 69C82.5308 69 101.729 78.6705 112.047 93.0584C114.552 96.5511 116.534 100.322 117.905 104.3C119.306 100.348 121.328 96.6009 123.881 93.1276C134.485 78.7015 154.266 69 176.917 69C202.62 69 224.626 81.4918 233.724 99.2036H221.913ZM36.931 117C36.931 114.239 39.1695 112 41.931 112H78.931C81.6924 112 83.931 114.239 83.931 117C83.931 119.761 81.6924 122 78.931 122H41.931C39.1695 122 36.931 119.761 36.931 117Z" fill="url(#logo-gradient)"/>
    </g>
    </g>
    <defs>
    <linearGradient id="logo-gradient" x1="0%" y1="50%" x2="100%" y2="50%" > 
    <stop offset="0%" stop-color="#7A5FFF">
    <animate attributeName="stop-color" values="#7A5FFF; #01FF89; #7A5FFF" dur="3s" repeatCount="indefinite"></animate>
    </stop>
    <stop offset="100%" stop-color="#01FF89">
    <animate attributeName="stop-color" values="#01FF89; #7A5FFF; #01FF89" dur="3s" repeatCount="indefinite"></animate>
    </stop>
    </linearGradient> 
    </defs>
</svg>